inDegrees=no
num_controls=7
num_derivatives=13
num_iterations=135
num_multipliers=7
num_parameters=0
num_slacks=7
num_states=26
objective=6.300198
objective_accelerations=0.628181
objective_balance=0.020307
objective_effort=0.528820
objective_height=5.074684
objective_ligament=0.048205
solver_duration=1173.654763
status=Solve_Succeeded
success=true
DataType=double
version=3
OpenSimVersion=4.4-2022-07-23-0e9fedc
endheader
time	/jointset/ground_pelvis/pelvis_tilt/value	/jointset/ground_pelvis/pelvis_tx/value	/jointset/ground_pelvis/pelvis_ty/value	/jointset/hip_r/hip_flexion_r/value	/jointset/hip_r/hip_adduction_r/value	/jointset/hip_r/hip_rotation_r/value	/jointset/back/lumbar_extension/value	/jointset/patellofemoral_r/patellar_flexion_r/value	/jointset/knee_r/knee_flexion_r/value	/jointset/knee_r/knee_adduction_r/value	/jointset/knee_r/knee_rotation_r/value	/jointset/ankle_r/ankle_angle_r/value	/jointset/subtalar_r/subtalar_angle_r/value	/jointset/ground_pelvis/pelvis_tilt/speed	/jointset/ground_pelvis/pelvis_tx/speed	/jointset/ground_pelvis/pelvis_ty/speed	/jointset/hip_r/hip_flexion_r/speed	/jointset/hip_r/hip_adduction_r/speed	/jointset/hip_r/hip_rotation_r/speed	/jointset/back/lumbar_extension/speed	/jointset/patellofemoral_r/patellar_flexion_r/speed	/jointset/knee_r/knee_flexion_r/speed	/jointset/knee_r/knee_adduction_r/speed	/jointset/knee_r/knee_rotation_r/speed	/jointset/ankle_r/ankle_angle_r/speed	/jointset/subtalar_r/subtalar_angle_r/speed	/forceset/tau_hip_flexion_r	/forceset/tau_hip_adduction_r	/forceset/tau_hip_rotation_r	/forceset/tau_knee_flexion_r	/forceset/tau_ankle_angle_r	/forceset/tau_subtalar_angle_r	/forceset/tau_lumbar_extension	lambda_cid13_p0	lambda_cid14_p0	lambda_cid14_p1	lambda_cid14_p2	lambda_cid14_p3	lambda_cid14_p4	lambda_cid14_p5	/jointset/ground_pelvis/pelvis_tilt/accel	/jointset/ground_pelvis/pelvis_tx/accel	/jointset/ground_pelvis/pelvis_ty/accel	/jointset/hip_r/hip_flexion_r/accel	/jointset/hip_r/hip_adduction_r/accel	/jointset/hip_r/hip_rotation_r/accel	/jointset/back/lumbar_extension/accel	/jointset/patellofemoral_r/patellar_flexion_r/accel	/jointset/knee_r/knee_flexion_r/accel	/jointset/knee_r/knee_adduction_r/accel	/jointset/knee_r/knee_rotation_r/accel	/jointset/ankle_r/ankle_angle_r/accel	/jointset/subtalar_r/subtalar_angle_r/accel	gamma_cid13_p0	gamma_cid14_p0	gamma_cid14_p1	gamma_cid14_p2	gamma_cid14_p3	gamma_cid14_p4	gamma_cid14_p5
0.5	-0.1692112512325064	0.01378363333832636	0.8251471335519619	0.9011668402540576	-0.2449474046856777	-0.08525922743211345	-0.3341042047778354	0.8194794207323345	0.8194794207330731	0.06640088711104712	0.1745238276961551	0.2571379672500985	0.03417912710174936	-0.4397603177674403	-0.1590373429969122	-0.4822014789155237	1.963602728506675	-0.0183200932911646	0.4129327372956092	-0.5931978716429822	2.020151081719595	2.020151081719175	-0.1908651302495062	-6.726492744343801e-05	0.5897721259967388	0.1253465578784045	-0.1206595254079298	-0.02781185152976719	0.01476755055946435	-0.3667093562538957	0.1045548325048887	-0.00999320105440169	0.1662362782517059	-24.16381978381695	-8.16645327018192	-1.892908737759312	-3.666745742284077	-2.874795580987036	-661.3652094543717	62.78909100461236	0.3131938083485129	0.5268569477431492	-0.4818631601087058	-1.220089895645706	0.132910841397743	-0.4057472559538576	1.626177582450027	-1.347483388521912	-1.347483388521918	0.4412527489909421	-0.02961355984427473	-0.5328747106389801	0.1137328514683797	-1.667319012585306e-07	-1.204165816436356e-07	1.485761460129379e-06	-8.133506519171316e-07	-9.348661045437224e-08	-2.103144057338973e-07	9.525625073438043e-07
0.51	-0.1735923875133786	0.01221980605117617	0.8203021421910721	0.9207387336170961	-0.2451247410480661	-0.08115102752540976	-0.3399542880405768	0.8396105176048322	0.8396105176057029	0.06451548378756616	0.1745231107655963	0.2630078910467817	0.03543699951242023	-0.436405902376682	-0.1537107525359322	-0.4866845972297371	1.950503639322767	-0.01714864705612427	0.4086745572665727	-0.5767420179551214	2.005780357759237	2.005780357758962	-0.1862180033252582	-7.272949122692779e-05	0.5841285097647395	0.1262079124266301	-0.1273218084625343	-0.02631450450292925	0.01522067649551924	-0.3707163987940293	0.1016075757304945	-0.009004357158375781	0.172214445830183	-22.88144962621753	-9.334384701202652	-1.775695137898457	-3.562361984460959	-2.444980755472719	-666.2068921067474	62.99682517564418	0.3557079514266434	0.5381461612901828	-0.4147469123007107	-1.39567973324026	0.1090321103355595	-0.4409773611628676	1.666803704128603	-1.525024716008396	-1.525024715986756	0.4762573386049613	0.01436019516599661	-0.592757458064469	0.06946710710075439	-1.580043051488547e-07	-1.158597788832985e-07	1.390101310201197e-06	-7.851407573224616e-07	-8.714831477529613e-08	-1.96494872434317e-07	8.927631532798221e-07
0.52	-0.1779381511309329	0.010709761881839	0.8154156774979957	0.9401714638276149	-0.2452904088289484	-0.07708643421595236	-0.3456375098780006	0.8595892756744921	0.8595892756754817	0.0626765146682548	0.1745224138093372	0.2688188482054288	0.03670291153869365	-0.4326857851064762	-0.1482807194343069	-0.4904961453528505	1.935770097999776	-0.01598637698995624	0.4042114178461697	-0.5598255865803049	1.98968332115025	1.98968332115012	-0.1815782894224867	-6.327006255256353e-05	0.577978798389378	0.1269544809989006	-0.133984091517095	-0.02481715747607153	0.01567380243129032	-0.3747234413341459	0.09866031895610697	-0.008015513262315645	0.1781926134086986	-21.59229954144136	-10.50782348443447	-1.654769560076905	-3.46391172537278	-2.024816977742296	-671.1455600069945	63.27207643786382	0.3863341842378354	0.5475454758723155	-0.3475491218887219	-1.546980323462441	0.1310756076232433	-0.4467391342271272	1.718293119841027	-1.692745918247795	-1.692745918247782	0.4397701446956794	-0.02662876135271214	-0.6340937393113096	0.09077565627736051	-1.495575496595157e-07	-1.125667981696205e-07	1.300295015450973e-06	-7.583345649304804e-07	-7.917617800730312e-08	-1.878964426507671e-07	8.363984661178671e-07
0.53	-0.1822449278467692	0.009254459211966767	0.8104944930799455	0.9594488571677238	-0.2454444634204619	-0.07306729965101913	-0.3511494551268951	0.8793985941053334	0.8793985941059915	0.06088387478591433	0.1745217205721995	0.2745658511153364	0.0379757541337862	-0.4286123273047444	-0.1427693443042016	-0.4936251555302829	1.919449359282806	-0.01482767353355677	0.3995903261597344	-0.5425040398372458	1.971907098763791	1.971907098763828	-0.1769487481812869	-7.526118157268035e-05	0.5713433202272201	0.1275919715819707	-0.1405056945596709	-0.02341511160808566	0.01611186280427256	-0.3787847454369181	0.09574193284628212	-0.007149612544166464	0.1840208087774288	-20.30085275340107	-11.68119418359311	-1.594311454632136	-3.347728073568075	-1.545893103569358	-676.1045845918826	63.46825095022186	0.4264241351391407	0.554489069424195	-0.2782762326554158	-1.713516928912455	0.1077777699203308	-0.4737697014450806	1.747998955422722	-1.861021312838699	-1.861021312813604	0.4748493776694326	0.01140807716332418	-0.6900746472321624	0.04703574444583923	-1.407622799222265e-07	-1.083364546482399e-07	1.205099145167802e-06	-7.289826954707343e-07	-7.149452270675654e-08	-1.772697659492465e-07	7.751406354284715e-07
0.54	-0.1865092554731762	0.007854581400964771	0.8055454787067241	0.9785552638640566	-0.2455870289663565	-0.06909517110606959	-0.3564864022075785	0.899021958129516	0.8990219581298342	0.05913759096877248	0.1745208858967259	0.2802441392851101	0.03925433163173431	-0.4241959672231153	-0.1371957476602598	-0.4960621363870864	1.901572769241902	-0.0136885678662794	0.3948102138495689	-0.5248259529388343	1.952492439817585	1.95249243981779	-0.172307076386599	-9.155772699140789e-05	0.5642358503624975	0.128101461570001	-0.1470272976022125	-0.02201306574009184	0.01654992317706045	-0.3828460495396793	0.09282354673645951	-0.006283711826001412	0.1898490041461907	-19.01517781489303	-12.85885571118304	-1.530248267720723	-3.237095429084722	-1.080510979565921	-681.1415915191208	63.72647680111909	0.4549146402171603	0.5599897786397147	-0.2091432577629283	-1.858150588249464	0.1271560497987837	-0.4785432589731826	1.789601150911419	-2.020433230197003	-2.020433230197018	0.4421962553933591	-0.02748984663241158	-0.7284920798241415	0.06517553726938502	-1.315814199531627e-07	-1.030690288715287e-07	1.103940340252435e-06	-6.968143322338863e-07	-6.413425115742729e-08	-1.643990713810351e-07	7.084691140278651e-07
0.55	-0.1907277746436528	0.006510686937100231	0.8005755777606929	0.9974753150580942	-0.2457182246445726	-0.06517161824246409	-0.3616449538709138	0.9184431556309642	0.9184431556314246	0.05743757931177151	0.1745197726011111	0.2858490936371239	0.04053746848825229	-0.419455100119542	-0.131578426115725	-0.4977999419131001	1.88218990230067	-0.01255327835050095	0.3898636864905416	-0.506842969510871	1.931487447600578	1.931487447600573	-0.1677071448422355	-0.0001246599785156379	0.5566836592023684	0.1285052986474742	-0.1533293890657939	-0.02077037102913512	0.01697309425375631	-0.3870532451103713	0.09006634222268455	-0.005513256204684578	0.1954626025593922	-17.73962179696676	-13.99000755153348	-1.503855390374696	-3.115474406217487	-0.5976317604211911	-686.1569268807687	63.95394460204459	0.4915766549524025	0.5632991681498519	-0.1384140398578831	-2.015503256559542	0.1062797257372003	-0.5083841248159112	1.80885847105473	-2.17944883343694	-2.17944883346836	0.4672451696832339	0.009631991413686952	-0.7793124128189123	0.02498150969379132	-1.219779209493361e-07	-9.632935045178204e-08	1.008968265669034e-06	-6.556119067215946e-07	-5.864860795187403e-08	-1.502281623206137e-07	6.460198498916491e-07
0.5600000000000001	-0.1948973043611764	0.005223104853839197	0.7955918357914342	1.016194107880831	-0.2458381545629756	-0.06129866598254104	-0.3666224333935031	0.9376465198870482	0.9376465198876415	0.05578323768337139	0.1745184987641231	0.2913763801217946	0.04182404245888657	-0.4143980766350014	-0.1259332715395582	-0.4988303410325786	1.861321094979457	-0.01143541590393041	0.3846900931135804	-0.4886115247902906	1.908925790744196	1.908925790743982	-0.1631730706688593	-0.0001236659969938066	0.5487022768937746	0.1287888843932472	-0.1596314805293515	-0.01952767631817847	0.01739626533029897	-0.3912604406810558	0.08730913770890938	-0.004742800583363981	0.2010762009726171	-16.47684698040666	-15.12501207689956	-1.474239079418906	-2.998819986219075	-0.1308201027591626	-691.2442052124904	64.23784608696522	0.5181459164105048	0.5655563849661727	-0.06766197645587121	-2.155338664245554	0.1236706359571653	-0.5239564625599857	1.839293409434731	-2.331766158071989	-2.331766158071985	0.4290247811959577	-0.02067060002317499	-0.8143303095169971	0.04112527092932722	-1.118672551037941e-07	-8.782296886039274e-08	9.214202674839935e-07	-6.035686064787706e-07	-5.541251875885189e-08	-1.344969958695403e-07	5.886372944727016e-07
0.5700000000000001	-0.1990147496357851	0.003992047263758889	0.7906013316499469	1.034696979501196	-0.2459469511309155	-0.05747830172141562	-0.3714164810345782	0.9566166628069291	0.9566166628073266	0.05417396317839303	0.1745171621920883	0.2968217927255053	0.04311290120799462	-0.4090406515648451	-0.1202795454725502	-0.4991512633646157	1.839015912641016	-0.0103303390708219	0.379368455023341	-0.4701725789486244	1.884856762572565	1.884856762572339	-0.1586729839224487	-0.0001475203106287195	0.5403140335713431	0.1289566619298766	-0.165767847769212	-0.01832156531494574	0.01781510984044143	-0.3954503509631552	0.08452349188340101	-0.004094841705343615	0.2065029880559629	-15.22906787749834	-16.27243647494367	-1.509802867112545	-2.860574084228055	0.4056038620015677	-696.2472798398221	64.41851559847676	0.5520800971587718	0.5650751518739355	0.003551103741299875	-2.303717006833689	0.1029306101370681	-0.5385607963755363	1.850008842693478	-2.481354515924025	-2.481354515926011	0.4619427613016175	0.006081565395970732	-0.8610244419207914	0.0007433057130546128	-9.013107245416999e-08	-5.527068670499768e-08	9.223410567213769e-07	-3.87009437982978e-07	-7.846981577104845e-08	-1.040629106478937e-07	5.866240863093101e-07
0.58	-0.2030771128007113	0.002817485821210095	0.7856111899782032	1.05296967750055	-0.2460448960498905	-0.05371161250402497	-0.3760253764830017	0.9753387387712474	0.9753387387714476	0.05260997796886801	0.174515451959397	0.3021813322763293	0.04440266559460573	-0.4033816547010944	-0.1146340420332557	-0.4987578470838683	1.815286370774962	-0.009265086111733043	0.3739550843683159	-0.4515810862605419	1.859312399632317	1.859312399632077	-0.1541152115785175	-0.0001983981270793199	0.5315276663163292	0.1289700118938377	-0.1719042150090666	-0.01711545431173323	0.01823395435064672	-0.3996402612452552	0.08173784605788505	-0.003446882827354749	0.2119297751393186	-13.99808693108569	-17.42397738263956	-1.542944256634278	-2.726304742216895	0.9267108186994829	-701.3251220946369	64.64982989954308	0.5784602751292696	0.5639118594235107	0.07520574610106767	-2.440210569768055	0.1157058611532235	-0.5423029755171048	1.869802778717873	-2.626833111795666	-2.626833111795709	0.4405619007001016	-0.02607530058630152	-0.8939550960334215	0.01023975639566326	-5.325468187364897e-08	8.597186882589187e-09	1.038477010974006e-06	4.380295428411108e-08	-1.357696622598071e-07	-5.448083819015312e-08	6.567197955019885e-07
0.59	-0.207081499796488	0.001699276350422346	0.7806285427129303	1.070998230157881	-0.2461321584236296	-0.05000060508055584	-0.380447701700635	0.993798203309986	0.9937982033107132	0.05109054347922896	0.1745134601068688	0.3074511670408637	0.04569214916652664	-0.3974502145705572	-0.1090143069683834	-0.4976524145954289	1.790198283728921	-0.008196981863699037	0.3682379596047466	-0.4328765491489281	1.83234721512433	1.832347215124249	-0.1497557336606066	-0.0002060365715452605	0.5223785604493812	0.1288961537582025	-0.1777589932555422	-0.01602096586448415	0.0186372534306719	-0.4038981045608515	0.07909417286150959	-0.002886443824812461	0.2170751196502695	-12.78531391520671	-18.52745278939079	-1.611282668528265	-2.580024306271415	1.466320196831791	-706.2525119092141	64.84256675158727	0.6073173906157818	0.5600022356272802	0.1460856199459829	-2.576985971000871	0.1010336242330726	-0.5877443657423878	1.871890394737777	-2.766348738646112	-2.766348738622338	0.4361866199200328	0.01106716495934218	-0.9345264882802077	-0.02057199100405098	-1.706247007421575e-08	7.133455176022527e-08	1.176964408584033e-06	4.738681308397105e-07	-1.954169640662321e-07	-7.518219436238642e-09	7.575420880334487e-07
